<?xml version="1.0" standalone="no"?>
<!DOCTYPE svg PUBLIC "-//W3C//DTD SVG 20010904//EN"
 "http://www.w3.org/TR/2001/REC-SVG-20010904/DTD/svg10.dtd">
<svg version="1.0" xmlns="http://www.w3.org/2000/svg"
 width="512.000000pt" height="512.000000pt" viewBox="0 0 512.000000 512.000000"
 preserveAspectRatio="xMidYMid meet">

<g transform="translate(0.000000,512.000000) scale(0.100000,-0.100000)"
fill="#000000" stroke="none">
<path d="M2340 5109 c-585 -50 -1134 -302 -1559 -714 -617 -599 -892 -1456
-736 -2298 97 -528 348 -996 736 -1372 906 -880 2305 -967 3319 -207 769 577
1150 1556 975 2505 -194 1049 -1023 1873 -2070 2055 -224 39 -448 50 -665 31z
m315 -593 c60 -28 118 -89 135 -142 6 -22 13 -45 16 -52 3 -10 8 -10 22 -1 27
17 61 5 145 -51 157 -105 307 -301 411 -536 31 -71 33 -73 44 -49 16 34 45 39
167 26 362 -39 588 -202 651 -467 22 -95 14 -240 -20 -359 -47 -163 -174 -388
-310 -551 -38 -46 -78 -58 -104 -32 -23 23 -11 55 49 133 197 256 289 470 289
678 0 285 -218 468 -589 493 -53 4 -105 11 -115 17 -16 8 -18 7 -12 -9 82
-205 153 -536 177 -821 15 -184 7 -606 -16 -768 -36 -262 -104 -538 -137 -556
-28 -15 -67 -3 -73 24 -3 12 10 83 29 158 40 155 70 322 88 489 15 148 15 553
-1 695 -50 447 -165 819 -336 1082 -73 111 -208 246 -296 294 l-66 36 -11 -44
c-27 -101 -160 -184 -270 -169 -59 8 -136 51 -169 94 -159 210 65 499 302 388z
m327 -793 c21 -19 24 -56 4 -72 -8 -7 -74 -28 -148 -47 -416 -110 -878 -348
-1248 -642 -132 -106 -362 -338 -448 -453 -186 -250 -272 -460 -272 -668 0
-85 2 -92 18 -86 39 16 111 17 159 1 107 -36 173 -128 173 -242 0 -100 -48
-181 -134 -227 -58 -30 -174 -30 -232 0 -49 26 -98 80 -119 130 -34 81 -7 223
54 277 21 19 21 20 2 40 -43 47 -35 226 19 388 38 114 105 245 184 363 51 74
61 95 47 95 -25 0 -43 23 -85 108 -228 456 -99 846 324 980 125 40 180 47 375
47 196 -1 332 -15 373 -41 26 -17 29 -55 6 -78 -19 -19 -6 -19 -139 0 -152 22
-427 15 -536 -14 -280 -75 -423 -255 -406 -512 7 -106 34 -194 99 -331 l50
-106 68 76 c403 454 1039 839 1655 1001 130 35 133 35 157 13z m-345 -814 c73
-35 114 -129 93 -210 -23 -85 -123 -150 -203 -134 -60 13 -114 52 -137 100
-78 161 86 322 247 244z m-1237 -775 c484 -490 1204 -857 1833 -935 59 -7 159
-10 250 -7 180 6 283 29 397 89 103 53 140 50 140 -12 0 -70 -226 -159 -458
-181 -507 -48 -1222 193 -1809 609 -145 103 -251 191 -385 322 -101 97 -128
130 -128 150 0 34 17 51 50 51 19 0 47 -22 110 -86z m2854 -332 c83 -45 126
-121 126 -222 0 -71 -15 -112 -61 -165 -91 -103 -251 -114 -354 -23 -103 90
-117 233 -35 349 24 33 95 78 143 90 50 12 127 0 181 -29z m-2424 -372 c10 -5
30 -42 46 -82 75 -199 188 -383 309 -503 188 -186 395 -226 595 -112 78 44
199 164 270 268 52 76 65 89 89 89 33 0 51 -16 51 -48 0 -40 -88 -161 -194
-268 -85 -85 -115 -108 -192 -146 -146 -73 -268 -84 -417 -38 -189 59 -394
265 -527 529 -41 83 -110 252 -110 270 0 14 37 51 51 51 6 0 19 -4 29 -10z"/>
<path d="M2523 4429 c-51 -10 -83 -37 -105 -85 -56 -129 90 -257 210 -184 140
86 55 303 -105 269z"/>
<path d="M889 1637 c-19 -12 -42 -38 -51 -57 -50 -98 21 -210 132 -210 112 0
183 114 131 210 -41 78 -141 105 -212 57z"/>
<path d="M4062 1714 c-87 -45 -107 -154 -41 -229 80 -91 232 -49 255 70 9 49
-19 119 -58 146 -40 29 -113 35 -156 13z"/>
</g>
</svg>
